<?xml version="1.0" encoding="iso-8859-1"?>
<!-- Generator: Adobe Illustrator 19.0.0, SVG Export Plug-In . SVG Version: 6.00 Build 0)  -->
<svg version="1.1" id="Layer_1" xmlns="http://www.w3.org/2000/svg" xmlns:xlink="http://www.w3.org/1999/xlink" x="0px" y="0px"
	 viewBox="0 0 512 512" style="enable-background:new 0 0 512 512;" xml:space="preserve">
<g>
	<g>
		<polygon points="271.209,104.9 271.209,153.072 240.791,153.072 240.791,104.9 169.811,104.9 169.811,153.072 139.394,153.072 
			139.394,104.9 89.796,104.9 89.796,293.326 320.807,293.326 320.807,104.9 		"/>
	</g>
</g>
<g>
	<g>
		<path d="M436.34,180.456C479.23,173.198,512,135.791,512,90.868c0-50.103-40.764-90.867-90.868-90.867
			s-90.867,40.763-90.867,90.867c0,44.922,32.769,82.329,75.659,89.588v204.15h-49.547H220.51v-30.417v-0.028h100.297h35.57v-30.417
			H290.39H120.213H54.226v30.417h35.57h100.297v0.028v30.417H54.226H0v76.201h27.111v51.192h92.234v-51.192h273.31v51.192h92.234
			v-51.192H512v-76.201h-75.66V180.456z M393.071,90.869c0-15.497,12.563-28.061,28.061-28.061c2.032,0,4.012,0.221,5.921,0.632
			l24.522-24.522l21.508,21.508l-24.522,24.522c0.411,1.909,0.632,3.889,0.632,5.921c0,15.498-12.563,28.061-28.061,28.061
			C405.634,118.93,393.071,106.367,393.071,90.869z"/>
	</g>
</g>
<g>
</g>
<g>
</g>
<g>
</g>
<g>
</g>
<g>
</g>
<g>
</g>
<g>
</g>
<g>
</g>
<g>
</g>
<g>
</g>
<g>
</g>
<g>
</g>
<g>
</g>
<g>
</g>
<g>
</g>
</svg>
